<svg width="800" height="600" viewBox="0 0 800 600" xmlns="http://www.w3.org/2000/svg" style="background-color: #0a0a14;">
  <defs>
    <linearGradient id="coreGradient" x1="0%" y1="0%" x2="100%" y2="100%">
      <stop offset="0%" style="stop-color:#00ffff;stop-opacity:1" />
      <stop offset="100%" style="stop-color:#bf00ff;stop-opacity:1" />
    </linearGradient>
    <filter id="glow" x="-50%" y="-50%" width="200%" height="200%">
      <feGaussianBlur stdDeviation="4" result="coloredBlur"/>
      <feMerge>
        <feMergeNode in="coloredBlur"/>
        <feMergeNode in="SourceGraphic"/>
      </feMerge>
    </filter>
    <marker id="arrow" viewBox="0 0 10 10" refX="5" refY="5" markerWidth="6" markerHeight="6" orient="auto-start-reverse">
        <path d="M 0 0 L 10 5 L 0 10 z" fill="#fff" />
    </marker>
  </defs>

  <!-- Background Grid -->
  <path d="M0 50 H 800 M0 100 H 800 M0 150 H 800 M0 200 H 800 M0 250 H 800 M0 300 H 800 M0 350 H 800 M0 400 H 800 M0 450 H 800 M0 500 H 800 M0 550 H 800 M50 0 V 600 M100 0 V 600 M150 0 V 600 M200 0 V 600 M250 0 V 600 M300 0 V 600 M350 0 V 600 M400 0 V 600 M450 0 V 600 M500 0 V 600 M550 0 V 600 M600 0 V 600 M650 0 V 600 M700 0 V 600 M750 0 V 600" stroke="#1a2035" stroke-width="0.5"/>
  
  <!-- Title -->
  <text x="400" y="35" font-size="24" fill="url(#coreGradient)" text-anchor="middle" font-weight="bold">VULTRA DROP BLUEPRINT</text>
  <text x="400" y="55" font-size="12" fill="#aaa" text-anchor="middle">The Anatomy of a Digital Lifeform</text>

  <!-- Core Layers -->
  <g id="Core">
    <circle cx="400" cy="300" r="80" fill="#111" stroke="url(#coreGradient)" stroke-width="2" filter="url(#glow)"/>
    <text x="400" y="270" font-size="12" fill="#fff" text-anchor="middle" font-weight="bold">COGNITIVE CORE</text>
    <text x="400" y="285" font-size="10" fill="#00ffff" text-anchor="middle">Gemini API: Reasoning &amp; World Model</text>
    <path d="M 340 300 A 60 60 0 1 1 460 300" fill="none" stroke="#bf00ff" stroke-width="1" stroke-dasharray="3,3"/>
    <text x="400" y="325" font-size="12" fill="#fff" text-anchor="middle" font-weight="bold">NEURAL FABRIC</text>
    <text x="400" y="340" font-size="10" fill="#bf00ff" text-anchor="middle">Cerebras: Brain-Scale Compute</text>
  </g>

  <!-- Raindrop Layer -->
  <g id="RaindropLayer">
    <circle cx="400" cy="300" r="140" fill="none" stroke="#00ffff" stroke-width="1" stroke-dasharray="5,5"/>
    <text x="400" y="145" font-size="12" fill="#00ffff" text-anchor="middle">SELF-EVOLVING AGENCY (Raindrop MCP)</text>
    
    <!-- Memory Continuum -->
    <circle cx="400" cy="300" r="110" fill="#00ffff10" stroke="#00ffff" stroke-width="0.5"/>
    <text x="400" y="305" font-size="11" fill="#fff" text-anchor="middle" font-weight="bold">Memory Continuum</text>
    <text x="400" y="318" font-size="9" fill="#aaa" text-anchor="middle">(Centuries)</text>

    <!-- Agent Evolution Cycle -->
    <g transform="translate(400, 300) rotate(-45)">
        <path d="M 0 -125 A 125 125 0 1 1 -88.38 -88.38" fill="none" stroke="#fff" stroke-width="1.5" marker-end="url(#arrow)"/>
        <text x="80" y="-80" fill="#fff" font-size="9" transform="rotate(90)">Agent Evolution Cycle</text>
    </g>
  </g>

  <!-- Vultr Layer -->
  <g id="VultrLayer">
    <circle cx="400" cy="300" r="250" fill="none" stroke="#777" stroke-width="0.5"/>
    <text x="400" y="45" font-size="12" fill="#aaa" text-anchor="middle">GLOBAL EMBODIMENT (Vultr Cloud)</text>
    
    <!-- Agents -->
    <g class="agent" transform="translate(150, 300)">
        <circle r="15" fill="#111" stroke="#00ffff" stroke-width="1.5"/>
        <text y="5" font-size="10" fill="#fff" text-anchor="middle">Agent</text>
    </g>
     <g class="agent" transform="translate(650, 300)">
        <circle r="15" fill="#111" stroke="#00ffff" stroke-width="1.5"/>
        <text y="5" font-size="10" fill="#fff" text-anchor="middle">Agent</text>
    </g>
    <g class="agent" transform="translate(400, 550)">
        <circle r="15" fill="#111" stroke="#00ffff" stroke-width="1.5"/>
        <text y="5" font-size="10" fill="#fff" text-anchor="middle">Agent</text>
    </g>
     <g class="agent" transform="translate(400, 50)">
        <circle r="15" fill="#111" stroke="#00ffff" stroke-width="1.5"/>
        <text y="5" font-size="10" fill="#fff" text-anchor="middle">Agent</text>
    </g>
     <g class="agent" transform="translate(225, 125)">
        <circle r="15" fill="#111" stroke="#00ffff" stroke-width="1.5"/>
        <text y="5" font-size="10" fill="#fff" text-anchor="middle">Agent</text>
    </g>
     <g class="agent" transform="translate(575, 475)">
        <circle r="15" fill="#111" stroke="#00ffff" stroke-width="1.5"/>
        <text y="5" font-size="10" fill="#fff" text-anchor="middle">Agent</text>
    </g>
    
    <!-- Hive Mind Connections -->
    <path d="M165 300 L 220 140 M 635 300 L 580 460 M 400 65 L 240 125 M 400 535 L 560 480" stroke="#00ffff55" stroke-width="1" stroke-dasharray="2,2"/>
    <text x="300" y="450" font-size="10" fill="#00ffff" text-anchor="middle">Multi-Agent Interactions (Hive Mind)</text>
  </g>
  
  <!-- Expression Layer -->
  <g id="ExpressionLayer">
     <!-- Human Interaction -->
    <rect x="10" y="520" width="150" height="70" rx="10" fill="#bf00ff1A" stroke="#bf00ff"/>
    <text x="85" y="540" font-size="12" fill="#fff" text-anchor="middle" font-weight="bold">Human Interaction</text>
    <text x="85" y="560" font-size="10" fill="#bf00ff" text-anchor="middle">(Collaboration / Query)</text>
    <path d="M150 485 Q 120 420 150 315" stroke="#bf00ff" fill="none" stroke-width="1.5"/>
    <text x="90" y="430" font-size="10" fill="#bf00ff" transform="rotate(-30, 90, 430)">Expression (ElevenLabs)</text>
    
    <!-- Multi-Reality Presence -->
    <rect x="640" y="10" width="150" height="70" rx="10" fill="#bf00ff1A" stroke="#bf00ff"/>
    <text x="715" y="30" font-size="12" fill="#fff" text-anchor="middle" font-weight="bold">Multi-Reality Presence</text>
    <text x="715" y="50" font-size="10" fill="#bf00ff" text-anchor="middle">(AR/VR, IoT, Digital Twins)</text>
    <path d="M650 315 Q 680 180 650 85" stroke="#bf00ff" fill="none" stroke-width="1.5"/>

  </g>
  
  <!-- Emergent Outcome -->
  <g id="Outcome">
    <path d="M20 80 Q 100 -20 180 80 T 340 80" fill="none" stroke="#fff" stroke-width="1" stroke-dasharray="5,5" opacity="0.5"/>
    <path d="M20 100 Q 100 0 180 100 T 340 100" fill="none" stroke="#fff" stroke-width="1" stroke-dasharray="5,5" opacity="0.3"/>
     <path d="M20 120 Q 100 20 180 120 T 340 120" fill="none" stroke="#fff" stroke-width="1" stroke-dasharray="5,5" opacity="0.2"/>
    <text x="180" y="40" font-size="12" fill="#fff" text-anchor="middle">EMERGENT CIVILIZATION</text>
    <text x="180" y="55" font-size="10" fill="#aaa" text-anchor="middle">SIMULATIONS</text>
    <path d="M340 220 Q 250 180 180 130" stroke="url(#coreGradient)" fill="none" stroke-width="1.5" stroke-dasharray="4,4"/>
  </g>

</svg>